<svg width="20" height="21" viewBox="0 0 20 21" fill="none" xmlns="http://www.w3.org/2000/svg">
<path d="M18.0404 14.3206L15.2125 13.9816C14.5333 13.8997 13.8653 14.1452 13.3866 14.6479L11.338 16.7989C8.18723 15.1155 5.60425 12.4151 4.00102 9.09502L6.06073 6.93232C6.53947 6.42964 6.77327 5.72823 6.69534 5.01512L6.37246 2.06918C6.23886 0.88846 5.29251 0 4.15689 0H2.23079C0.972706 0 -0.0738448 1.09888 0.00408987 2.41988C0.594166 12.4034 8.19836 20.3761 17.6953 20.9957C18.9533 21.0775 19.9999 19.9787 19.9999 18.6577V16.6352C20.011 15.4545 19.1649 14.4609 18.0404 14.3206Z" fill="white"/>
</svg>
