<svg width="76" height="80" viewBox="0 0 76 80" fill="none" xmlns="http://www.w3.org/2000/svg">
<g id="&#240;&#159;&#166;&#134; icon &#34;facebook&#34;">
<path id="Vector" d="M53.8324 11.6665C53.8324 11.2244 53.6655 10.8005 53.3686 10.488C53.0717 10.1754 52.669 9.99981 52.249 9.99981H44.3324C40.3459 9.79078 36.4429 11.2511 33.4761 14.0617C30.5094 16.8724 28.72 20.8048 28.499 24.9998V33.9998H20.5824C20.1624 33.9998 19.7597 34.1754 19.4628 34.4879C19.1658 34.8005 18.999 35.2244 18.999 35.6664V44.3331C18.999 44.7751 19.1658 45.199 19.4628 45.5116C19.7597 45.8241 20.1624 45.9997 20.5824 45.9997H28.499V68.333C28.499 68.7751 28.6658 69.199 28.9628 69.5115C29.2597 69.8241 29.6624 69.9997 30.0824 69.9997H39.5824C40.0023 69.9997 40.405 69.8241 40.7019 69.5115C40.9989 69.199 41.1657 68.7751 41.1657 68.333V45.9997H49.4624C49.8145 46.0051 50.1582 45.8867 50.4392 45.6633C50.7202 45.4399 50.9225 45.1243 51.014 44.7664L53.294 36.0998C53.357 35.8535 53.3655 35.5953 53.3188 35.3451C53.2721 35.0948 53.1714 34.8592 53.0246 34.6563C52.8778 34.4535 52.6887 34.2888 52.4718 34.175C52.255 34.0611 52.0163 34.0012 51.774 33.9998H41.1657V24.9998C41.2445 24.1747 41.6126 23.4102 42.1981 22.8554C42.7836 22.3007 43.5446 21.9956 44.3324 21.9998H52.249C52.669 21.9998 53.0717 21.8242 53.3686 21.5116C53.6655 21.1991 53.8324 20.7752 53.8324 20.3331V11.6665Z" fill="#D40303"/>
</g>
</svg>
