<svg width="56" height="62" viewBox="0 0 56 62" fill="none" xmlns="http://www.w3.org/2000/svg">
<g id="&#240;&#159;&#166;&#134; icon &#34;search outline&#34;">
<path id="Vector" d="M47.7814 49.6717L39.937 40.9425C42.4679 37.3438 43.8412 32.8999 43.8361 28.325C43.8361 24.2507 42.7536 20.2679 40.7255 16.8802C38.6974 13.4926 35.8147 10.8522 32.4421 9.29307C29.0694 7.7339 25.3583 7.32595 21.7779 8.12081C18.1975 8.91566 14.9087 10.8776 12.3274 13.7586C9.74612 16.6395 7.98823 20.3101 7.27605 24.3061C6.56387 28.3021 6.92938 32.4441 8.32638 36.2083C9.72337 39.9724 12.0891 43.1897 15.1244 45.4533C18.1597 47.7168 21.7282 48.925 25.3788 48.925C29.4778 48.9307 33.4595 47.398 36.6839 44.5732L44.5052 53.3282C44.7197 53.5696 44.9748 53.7612 45.256 53.8919C45.5371 54.0226 45.8387 54.0899 46.1433 54.0899C46.4478 54.0899 46.7494 54.0226 47.0306 53.8919C47.3117 53.7612 47.5669 53.5696 47.7814 53.3282C47.9976 53.0889 48.1693 52.8041 48.2864 52.4903C48.4035 52.1765 48.4638 51.8399 48.4638 51.5C48.4638 51.1601 48.4035 50.8235 48.2864 50.5097C48.1693 50.1959 47.9976 49.9111 47.7814 49.6717ZM11.5357 28.325C11.5357 25.2693 12.3476 22.2822 13.8687 19.7414C15.3898 17.2007 17.5518 15.2204 20.0813 14.051C22.6107 12.8817 25.3941 12.5757 28.0794 13.1719C30.7647 13.768 33.2313 15.2395 35.1672 17.4002C37.1032 19.5609 38.4216 22.3138 38.9558 25.3108C39.4899 28.3078 39.2158 31.4143 38.168 34.2374C37.1203 37.0606 35.346 39.4735 33.0695 41.1712C30.793 42.8689 28.1166 43.775 25.3788 43.775C21.7074 43.775 18.1863 42.1472 15.5903 39.2498C12.9942 36.3523 11.5357 32.4226 11.5357 28.325Z" fill="white"/>
</g>
</svg>
