<svg width="52" height="44" viewBox="0 0 52 44" fill="none" xmlns="http://www.w3.org/2000/svg">
<g id="&#240;&#159;&#166;&#134; icon &#34;twitter&#34;" filter="url(#filter0_d_41_27)">
<path id="Vector" d="M17.5071 35.3374C20.711 35.4248 23.9038 34.9876 26.8969 34.0516C29.89 33.1156 32.6227 31.6999 34.9334 29.888C37.2441 28.0761 39.086 25.9049 40.3502 23.5027C41.6144 21.1004 42.2753 18.5159 42.2938 15.9018C43.762 14.4201 44.8523 12.7141 45.5005 10.8839C45.5488 10.7393 45.5449 10.5864 45.4892 10.4436C45.4335 10.3007 45.3283 10.1741 45.1864 10.0789C45.0444 9.98364 44.8717 9.92392 44.6891 9.90687C44.5065 9.88983 44.3218 9.9162 44.1571 9.9828C43.389 10.2843 42.5242 10.3817 41.6846 10.2613C40.845 10.1408 40.0729 9.80859 39.4771 9.31139C38.7165 8.63217 37.7965 8.08435 36.7715 7.70041C35.7465 7.31646 34.6374 7.1042 33.51 7.07619C32.3826 7.04818 31.2597 7.20499 30.208 7.53734C29.1563 7.8697 28.197 8.37082 27.3871 9.01102C26.2782 9.88679 25.466 10.9816 25.0294 12.189C24.5928 13.3965 24.5466 14.6755 24.8955 15.9018C17.6371 16.2552 12.6538 13.4459 8.66712 9.59409C8.54736 9.48349 8.39069 9.40372 8.21625 9.36452C8.0418 9.32532 7.85714 9.3284 7.68481 9.37337C7.51248 9.41834 7.35993 9.50326 7.2458 9.61776C7.13167 9.73226 7.0609 9.87138 7.04212 10.0181C6.28264 13.4537 6.8305 16.9965 8.61213 20.1707C10.3938 23.3449 13.3238 25.9985 17.0088 27.7752C14.538 30.0859 11.0682 31.5292 7.32379 31.8036C7.12318 31.8308 6.938 31.9084 6.79415 32.0256C6.6503 32.1428 6.555 32.2937 6.52157 32.4573C6.48814 32.6209 6.51826 32.7889 6.60771 32.9378C6.69717 33.0867 6.84148 33.2091 7.02046 33.2878C10.2781 34.6154 13.8655 35.3165 17.5071 35.3374Z" fill="white"/>
</g>
<defs>
<filter id="filter0_d_41_27" x="2.5083" y="7.073" width="47.0259" height="36.2753" filterUnits="userSpaceOnUse" color-interpolation-filters="sRGB">
<feFlood flood-opacity="0" result="BackgroundImageFix"/>
<feColorMatrix in="SourceAlpha" type="matrix" values="0 0 0 0 0 0 0 0 0 0 0 0 0 0 0 0 0 0 127 0" result="hardAlpha"/>
<feOffset dy="4"/>
<feGaussianBlur stdDeviation="2"/>
<feComposite in2="hardAlpha" operator="out"/>
<feColorMatrix type="matrix" values="0 0 0 0 0 0 0 0 0 0 0 0 0 0 0 0 0 0 0.25 0"/>
<feBlend mode="normal" in2="BackgroundImageFix" result="effect1_dropShadow_41_27"/>
<feBlend mode="normal" in="SourceGraphic" in2="effect1_dropShadow_41_27" result="shape"/>
</filter>
</defs>
</svg>
