<svg width="46" height="55" viewBox="0 0 46 55" fill="none" xmlns="http://www.w3.org/2000/svg">
<g id="&#240;&#159;&#166;&#134; icon &#34;facebook&#34;" filter="url(#filter0_d_41_38)">
<path id="Vector" d="M32.5828 7.72904C32.5828 7.4362 32.4819 7.15535 32.3022 6.94828C32.1224 6.74121 31.8787 6.62487 31.6245 6.62487H26.8328C24.42 6.48639 22.0577 7.45386 20.262 9.3159C18.4663 11.1779 17.3833 13.7832 17.2495 16.5624V22.5248H12.4578C12.2037 22.5248 11.9599 22.6412 11.7802 22.8482C11.6005 23.0553 11.4995 23.3362 11.4995 23.629V29.3707C11.4995 29.6635 11.6005 29.9444 11.7802 30.1514C11.9599 30.3585 12.2037 30.4748 12.4578 30.4748H17.2495V45.2706C17.2495 45.5635 17.3505 45.8443 17.5302 46.0514C17.7099 46.2585 17.9537 46.3748 18.2078 46.3748H23.9578C24.212 46.3748 24.4558 46.2585 24.6355 46.0514C24.8152 45.8443 24.9162 45.5635 24.9162 45.2706V30.4748H29.9378C30.151 30.4784 30.359 30.3999 30.5291 30.2519C30.6992 30.104 30.8216 29.8949 30.877 29.6577L32.257 23.9161C32.2951 23.7529 32.3003 23.5819 32.272 23.4161C32.2437 23.2503 32.1828 23.0942 32.0939 22.9598C32.0051 22.8254 31.8906 22.7163 31.7594 22.6409C31.6282 22.5655 31.4837 22.5258 31.337 22.5248H24.9162V16.5624C24.9639 16.0157 25.1866 15.5092 25.5411 15.1417C25.8955 14.7742 26.356 14.5721 26.8328 14.5749H31.6245C31.8787 14.5749 32.1224 14.4585 32.3022 14.2515C32.4819 14.0444 32.5828 13.7635 32.5828 13.4707V7.72904Z" fill="white"/>
</g>
<defs>
<filter id="filter0_d_41_38" x="7.49951" y="6.61182" width="29.0835" height="47.763" filterUnits="userSpaceOnUse" color-interpolation-filters="sRGB">
<feFlood flood-opacity="0" result="BackgroundImageFix"/>
<feColorMatrix in="SourceAlpha" type="matrix" values="0 0 0 0 0 0 0 0 0 0 0 0 0 0 0 0 0 0 127 0" result="hardAlpha"/>
<feOffset dy="4"/>
<feGaussianBlur stdDeviation="2"/>
<feComposite in2="hardAlpha" operator="out"/>
<feColorMatrix type="matrix" values="0 0 0 0 0 0 0 0 0 0 0 0 0 0 0 0 0 0 0.25 0"/>
<feBlend mode="normal" in2="BackgroundImageFix" result="effect1_dropShadow_41_38"/>
<feBlend mode="normal" in="SourceGraphic" in2="effect1_dropShadow_41_38" result="shape"/>
</filter>
</defs>
</svg>
