<svg width="29" height="32" viewBox="0 0 29 32" fill="none" xmlns="http://www.w3.org/2000/svg">
<path d="M20.3635 4.56394C20.3635 4.39102 20.3004 4.22518 20.1881 4.10291C20.0758 3.98064 19.9235 3.91195 19.7646 3.91195H16.77C15.262 3.83017 13.7856 4.40145 12.6634 5.50097C11.5412 6.60048 10.8643 8.13883 10.7807 9.77992V13.3007H7.78606C7.62722 13.3007 7.47488 13.3694 7.36256 13.4917C7.25023 13.6139 7.18713 13.7798 7.18713 13.9527V17.3431C7.18713 17.516 7.25023 17.6818 7.36256 17.8041C7.47488 17.9264 7.62722 17.9951 7.78606 17.9951H10.7807V26.7318C10.7807 26.9047 10.8438 27.0706 10.9561 27.1929C11.0684 27.3151 11.2208 27.3838 11.3796 27.3838H14.9732C15.132 27.3838 15.2844 27.3151 15.3967 27.1929C15.509 27.0706 15.5721 26.9047 15.5721 26.7318V17.9951H18.7105C18.8437 17.9972 18.9737 17.9508 19.08 17.8635C19.1863 17.7761 19.2628 17.6526 19.2974 17.5126L20.1599 14.1222C20.1837 14.0259 20.1869 13.9249 20.1693 13.827C20.1516 13.7291 20.1135 13.6369 20.058 13.5575C20.0024 13.4782 19.9309 13.4138 19.8489 13.3692C19.7669 13.3247 19.6766 13.3013 19.5849 13.3007H15.5721V9.77992C15.6019 9.45715 15.7411 9.15806 15.9626 8.94105C16.1841 8.72404 16.472 8.6047 16.77 8.60632H19.7646C19.9235 8.60632 20.0758 8.53763 20.1881 8.41536C20.3004 8.29308 20.3635 8.12725 20.3635 7.95432V4.56394Z" fill="white"/>
</svg>
