<svg width="22" height="22" viewBox="0 0 22 22" fill="none" xmlns="http://www.w3.org/2000/svg">
<path d="M15.1583 1H6.22146C3.33774 1 1 3.33496 1 6.21523V15.1414C1 18.0217 3.33774 20.3566 6.22146 20.3566H15.1583C18.042 20.3566 20.3797 18.0217 20.3797 15.1414V6.21523C20.3798 3.33496 18.042 1 15.1583 1Z" stroke="white" stroke-width="2" stroke-miterlimit="10"/>
<path d="M10.6898 15.3507C13.2734 15.3507 15.3677 13.2588 15.3677 10.6784C15.3677 8.09791 13.2734 6.00604 10.6898 6.00604C8.10632 6.00604 6.01196 8.09791 6.01196 10.6784C6.01196 13.2588 8.10632 15.3507 10.6898 15.3507Z" stroke="white" stroke-width="2" stroke-miterlimit="10"/>
<path d="M16.3702 6.00609C16.9238 6.00609 17.3726 5.55783 17.3726 5.00488C17.3726 4.45192 16.9238 4.00366 16.3702 4.00366C15.8166 4.00366 15.3678 4.45192 15.3678 5.00488C15.3678 5.55783 15.8166 6.00609 16.3702 6.00609Z" fill="black"/>
</svg>
