<svg width="29" height="26" viewBox="0 0 29 26" fill="none" xmlns="http://www.w3.org/2000/svg">
<path d="M9.67879 20.8663C11.45 20.9179 13.2152 20.6598 14.87 20.1071C16.5247 19.5544 18.0355 18.7184 19.313 17.6485C20.5905 16.5786 21.6088 15.2966 22.3077 13.8781C23.0067 12.4595 23.372 10.9334 23.3822 9.38983C24.194 8.51492 24.7967 7.50751 25.1551 6.42681C25.1818 6.34143 25.1797 6.25113 25.1488 6.16679C25.118 6.08245 25.0599 6.00766 24.9814 5.95144C24.9029 5.89521 24.8075 5.85995 24.7065 5.84988C24.6056 5.83982 24.5034 5.85539 24.4124 5.89472C23.9877 6.07277 23.5096 6.13028 23.0455 6.05915C22.5813 5.98803 22.1544 5.79185 21.825 5.49826C21.4045 5.09719 20.8959 4.77371 20.3292 4.54699C19.7625 4.32028 19.1494 4.19494 18.5261 4.1784C17.9028 4.16186 17.282 4.25445 16.7005 4.4507C16.1191 4.64695 15.5888 4.94286 15.141 5.3209C14.5279 5.83802 14.0789 6.4845 13.8375 7.19748C13.5961 7.91047 13.5706 8.66572 13.7635 9.38983C9.75066 9.59849 6.99559 7.93962 4.79154 5.66519C4.72533 5.59988 4.63871 5.55278 4.54227 5.52963C4.44583 5.50649 4.34374 5.5083 4.24846 5.53486C4.15319 5.56141 4.06885 5.61156 4.00575 5.67917C3.94266 5.74678 3.90353 5.82893 3.89315 5.91559C3.47326 7.94423 3.77615 10.0362 4.76114 11.9106C5.74612 13.7849 7.36602 15.3518 9.40328 16.4009C8.03729 17.7654 6.11901 18.6176 4.04887 18.7797C3.93796 18.7957 3.83558 18.8415 3.75606 18.9107C3.67653 18.9799 3.62384 19.0691 3.60536 19.1657C3.58688 19.2622 3.60353 19.3614 3.65298 19.4494C3.70244 19.5373 3.78222 19.6096 3.88117 19.6561C5.68217 20.44 7.66547 20.854 9.67879 20.8663Z" fill="#EDEDED"/>
</svg>
